<?xml version="1.0" encoding="UTF-8" standalone="no"?>
<svg
   xmlns:dc="http://purl.org/dc/elements/1.1/"
   xmlns:cc="http://creativecommons.org/ns#"
   xmlns:rdf="http://www.w3.org/1999/02/22-rdf-syntax-ns#"
   xmlns:svg="http://www.w3.org/2000/svg"
   xmlns="http://www.w3.org/2000/svg"
   xmlns:sodipodi="http://sodipodi.sourceforge.net/DTD/sodipodi-0.dtd"
   xmlns:inkscape="http://www.inkscape.org/namespaces/inkscape"
   width="210mm"
   height="297mm"
   viewBox="0 0 210 297"
   version="1.1"
   id="svg8"
   inkscape:version="1.0.2 (e86c8708, 2021-01-15)"
   sodipodi:docname="drawing.svg">
  <defs
     id="defs2" />
  <sodipodi:namedview
     id="base"
     pagecolor="#ffffff"
     bordercolor="#666666"
     borderopacity="1.0"
     inkscape:pageopacity="0.0"
     inkscape:pageshadow="2"
     inkscape:zoom="1.9148309"
     inkscape:cx="281.97442"
     inkscape:cy="217.95148"
     inkscape:document-units="mm"
     inkscape:current-layer="layer2"
     inkscape:document-rotation="0"
     showgrid="false"
     inkscape:window-width="1440"
     inkscape:window-height="900"
     inkscape:window-x="1920"
     inkscape:window-y="424"
     inkscape:window-maximized="0" />
  <metadata
     id="metadata5">
    <rdf:RDF>
      <cc:Work
         rdf:about="">
        <dc:format>image/svg+xml</dc:format>
        <dc:type
           rdf:resource="http://purl.org/dc/dcmitype/StillImage" />
        <dc:title></dc:title>
      </cc:Work>
    </rdf:RDF>
  </metadata>
  <g
     inkscape:groupmode="layer"
     id="layer2"
     inkscape:label="Layer 2">
    <path
       style="fill:#eff3f8;fill-opacity:0.185484;stroke:#dfdfdf;stroke-width:0.264583px;stroke-linecap:butt;stroke-linejoin:miter;stroke-opacity:1"
       d="m 33.154109,28.387395 c 0,0 -0.344977,-3.995537 4.599703,-4.550472 0,0 2.466508,-6.90294 9.769378,-7.916161 7.302869,-1.013221 11.36509,3.568302 11.36509,3.568302 0,0 11.022767,-2.775346 13.966739,4.889894 2.943968,7.665241 -9.836055,6.894311 -9.836055,6.894311 0,0 3.811188,5.704877 -4.199148,8.612382 -8.010335,2.907505 -9.653481,-1.519832 -9.653481,-1.519832 0,0 -1.537106,4.760815 -7.894541,4.50289 -6.237946,-0.253078 -5.866803,-3.049138 -5.866803,-3.049138 0,0 -12.305588,6.109551 -13.464666,-4.647602 -0.606683,-5.630501 5.471218,-8.547094 11.213784,-6.784574 z"
       id="path853"
       sodipodi:nodetypes="ccscscscscsc" />
  </g>
</svg>
